{
  "accessors": [
    {
      "bufferView": 0,
      "byteOffset": 0,
      "componentType": 5126,
      "count": 728,
      "max": [
        0.07,
        0.203749985,
        0.410000026
      ],
      "min": [
        -0.07,
        -0.203749985,
        -0.410000026
      ],
      "normalized": false,
      "type": "VEC3"
    },
    {
      "bufferView": 1,
      "byteOffset": 0,
      "componentType": 5126,
      "count": 728,
      "normalized": false,
      "type": "VEC3"
    },
    {
      "bufferView": 2,
      "byteOffset": 0,
      "componentType": 5126,
      "count": 728,
      "normalized": false,
      "type": "VEC2"
    },
    {
      "bufferView": 3,
      "byteOffset": 0,
      "componentType": 5125,
      "count": 276,
      "normalized": false,
      "type": "SCALAR"
    },
    {
      "bufferView": 4,
      "byteOffset": 0,
      "componentType": 5125,
      "count": 690,
      "normalized": false,
      "type": "SCALAR"
    },
    {
      "bufferView": 5,
      "byteOffset": 0,
      "componentType": 5125,
      "count": 162,
      "normalized": false,
      "type": "SCALAR"
    },
    {
      "bufferView": 6,
      "byteOffset": 0,
      "componentType": 5125,
      "count": 348,
      "normalized": false,
      "type": "SCALAR"
    },
    {
      "bufferView": 7,
      "byteOffset": 0,
      "componentType": 5125,
      "count": 6,
      "normalized": false,
      "type": "SCALAR"
    }
  ],
  "asset": {
    "generator": "UniGLTF-2.34.0",
    "version": "2.0"
  },
  "buffers": [
    {
      "uri": "weapon_blasterR_data.bin",
      "byteLength": 29224
    }
  ],
  "bufferViews": [
    {
      "buffer": 0,
      "byteLength": 8736,
      "byteOffset": 0,
      "target": 34962
    },
    {
      "buffer": 0,
      "byteLength": 8736,
      "byteOffset": 8736,
      "target": 34962
    },
    {
      "buffer": 0,
      "byteLength": 5824,
      "byteOffset": 17472,
      "target": 34962
    },
    {
      "buffer": 0,
      "byteLength": 1104,
      "byteOffset": 23296,
      "target": 34963
    },
    {
      "buffer": 0,
      "byteLength": 2760,
      "byteOffset": 24400,
      "target": 34963
    },
    {
      "buffer": 0,
      "byteLength": 648,
      "byteOffset": 27160,
      "target": 34963
    },
    {
      "buffer": 0,
      "byteLength": 1392,
      "byteOffset": 27808,
      "target": 34963
    },
    {
      "buffer": 0,
      "byteLength": 24,
      "byteOffset": 29200,
      "target": 34963
    }
  ],
  "extensions": {
    "VRM": {
      "blendShapeMaster": {
        "blendShapeGroups": []
      },
      "exporterVersion": "UniVRM-0.98.0",
      "firstPerson": {
        "firstPersonBoneOffset": {
          "x": 0,
          "y": 0,
          "z": 0
        },
        "lookAtHorizontalInner": {
          "xRange": 90,
          "yRange": 10
        },
        "lookAtHorizontalOuter": {
          "xRange": 90,
          "yRange": 10
        },
        "lookAtTypeName": "Bone",
        "lookAtVerticalDown": {
          "xRange": 90,
          "yRange": 10
        },
        "lookAtVerticalUp": {
          "xRange": 90,
          "yRange": 10
        },
        "meshAnnotations": []
      },
      "humanoid": {
        "armStretch": 0.05,
        "feetSpacing": 0,
        "hasTranslationDoF": false,
        "humanBones": [],
        "legStretch": 0.05,
        "lowerArmTwist": 0.5,
        "lowerLegTwist": 0.5,
        "upperArmTwist": 0.5,
        "upperLegTwist": 0.5
      },
      "materialProperties": [
        {
          "floatProperties": {},
          "keywordMap": {},
          "name": "dark",
          "renderQueue": 2000,
          "shader": "VRM_USE_GLTFSHADER",
          "tagMap": {},
          "textureProperties": {},
          "vectorProperties": {}
        },
        {
          "floatProperties": {},
          "keywordMap": {},
          "name": "metal",
          "renderQueue": 2000,
          "shader": "VRM_USE_GLTFSHADER",
          "tagMap": {},
          "textureProperties": {},
          "vectorProperties": {}
        },
        {
          "floatProperties": {},
          "keywordMap": {},
          "name": "darkMetal",
          "renderQueue": 2000,
          "shader": "VRM_USE_GLTFSHADER",
          "tagMap": {},
          "textureProperties": {},
          "vectorProperties": {}
        },
        {
          "floatProperties": {},
          "keywordMap": {},
          "name": "green",
          "renderQueue": 2000,
          "shader": "VRM_USE_GLTFSHADER",
          "tagMap": {},
          "textureProperties": {},
          "vectorProperties": {}
        },
        {
          "floatProperties": {},
          "keywordMap": {},
          "name": "_defaultMat",
          "renderQueue": 2000,
          "shader": "VRM_USE_GLTFSHADER",
          "tagMap": {},
          "textureProperties": {},
          "vectorProperties": {}
        }
      ],
      "meta": {
        "allowedUserName": "OnlyAuthor",
        "commercialUssageName": "Disallow",
        "licenseName": "Redistribution_Prohibited",
        "sexualUssageName": "Disallow",
        "violentUssageName": "Disallow"
      },
      "secondaryAnimation": {
        "boneGroups": [],
        "colliderGroups": []
      },
      "specVersion": "0.0"
    }
  },
  "extensionsUsed": [
    "KHR_materials_unlit",
    "KHR_texture_transform",
    "VRM"
  ],
  "materials": [
    {
      "alphaMode": "OPAQUE",
      "doubleSided": false,
      "name": "dark",
      "pbrMetallicRoughness": {
        "baseColorFactor": [
          0.031946592,
          0.04603938,
          0.0651107,
          1
        ],
        "metallicFactor": 1,
        "roughnessFactor": 1
      }
    },
    {
      "alphaMode": "OPAQUE",
      "doubleSided": false,
      "name": "metal",
      "pbrMetallicRoughness": {
        "baseColorFactor": [
          0.5972019,
          0.6307572,
          0.745404363,
          1
        ],
        "metallicFactor": 1,
        "roughnessFactor": 1
      }
    },
    {
      "alphaMode": "OPAQUE",
      "doubleSided": false,
      "name": "darkMetal",
      "pbrMetallicRoughness": {
        "baseColorFactor": [
          0.3094689,
          0.361306876,
          0.5520115,
          1
        ],
        "metallicFactor": 1,
        "roughnessFactor": 1
      }
    },
    {
      "alphaMode": "OPAQUE",
      "doubleSided": false,
      "name": "green",
      "pbrMetallicRoughness": {
        "baseColorFactor": [
          0.06010524,
          0.817612767,
          0.416153878,
          1
        ],
        "metallicFactor": 1,
        "roughnessFactor": 1
      }
    },
    {
      "alphaMode": "OPAQUE",
      "doubleSided": false,
      "name": "_defaultMat",
      "pbrMetallicRoughness": {
        "baseColorFactor": [
          1,
          1,
          1,
          1
        ],
        "metallicFactor": 1,
        "roughnessFactor": 1
      }
    }
  ],
  "meshes": [
    {
      "extras": {
        "targetNames": []
      },
      "name": "Mesh blasterR",
      "primitives": [
        {
          "attributes": {
            "NORMAL": 1,
            "POSITION": 0,
            "TEXCOORD_0": 2
          },
          "extras": {
            "targetNames": []
          },
          "indices": 3,
          "material": 0,
          "mode": 4
        },
        {
          "attributes": {
            "NORMAL": 1,
            "POSITION": 0,
            "TEXCOORD_0": 2
          },
          "extras": {
            "targetNames": []
          },
          "indices": 4,
          "material": 1,
          "mode": 4
        },
        {
          "attributes": {
            "NORMAL": 1,
            "POSITION": 0,
            "TEXCOORD_0": 2
          },
          "extras": {
            "targetNames": []
          },
          "indices": 5,
          "material": 2,
          "mode": 4
        },
        {
          "attributes": {
            "NORMAL": 1,
            "POSITION": 0,
            "TEXCOORD_0": 2
          },
          "extras": {
            "targetNames": []
          },
          "indices": 6,
          "material": 3,
          "mode": 4
        },
        {
          "attributes": {
            "NORMAL": 1,
            "POSITION": 0,
            "TEXCOORD_0": 2
          },
          "extras": {
            "targetNames": []
          },
          "indices": 7,
          "material": 4,
          "mode": 4
        }
      ]
    }
  ],
  "nodes": [
    {
      "mesh": 0,
      "translation": [
        0,
        0,
        0
      ],
      "rotation": [
        0,
        0,
        0,
        1
      ],
      "scale": [
        1.5,
        1.5,
        1.5
      ],
      "name": "blasterR"
    }
  ],
  "scene": 0,
  "scenes": [
    {
      "nodes": [
        0
      ]
    }
  ],
  "extensionUsed": [
    "VRM"
  ]
}