{
  "extensionsUsed": [
    "KHR_materials_unlit"
  ],
  "asset": {
    "generator": "UniGLTF-1.27",
    "version": "2.0"
  },
  "buffers": [
    {
      "uri": "weapon_gun_data.bin",
      "byteLength": 4360
    }
  ],
  "bufferViews": [
    {
      "buffer": 0,
      "byteOffset": 0,
      "byteLength": 1320,
      "target": 34962
    },
    {
      "buffer": 0,
      "byteOffset": 1320,
      "byteLength": 1320,
      "target": 34962
    },
    {
      "buffer": 0,
      "byteOffset": 2640,
      "byteLength": 880,
      "target": 34962
    },
    {
      "buffer": 0,
      "byteOffset": 3520,
      "byteLength": 240,
      "target": 34963
    },
    {
      "buffer": 0,
      "byteOffset": 3760,
      "byteLength": 336,
      "target": 34963
    },
    {
      "buffer": 0,
      "byteOffset": 4096,
      "byteLength": 120,
      "target": 34963
    },
    {
      "buffer": 0,
      "byteOffset": 4216,
      "byteLength": 144,
      "target": 34963
    }
  ],
  "accessors": [
    {
      "bufferView": 0,
      "byteOffset": 0,
      "type": "VEC3",
      "componentType": 5126,
      "count": 110,
      "max": [
        0.1,
        0.45,
        0.35
      ],
      "min": [
        -0.1,
        0,
        -0.35
      ],
      "normalized": false
    },
    {
      "bufferView": 1,
      "byteOffset": 0,
      "type": "VEC3",
      "componentType": 5126,
      "count": 110,
      "normalized": false
    },
    {
      "bufferView": 2,
      "byteOffset": 0,
      "type": "VEC2",
      "componentType": 5126,
      "count": 110,
      "normalized": false
    },
    {
      "bufferView": 3,
      "byteOffset": 0,
      "type": "SCALAR",
      "componentType": 5125,
      "count": 60,
      "normalized": false
    },
    {
      "bufferView": 4,
      "byteOffset": 0,
      "type": "SCALAR",
      "componentType": 5125,
      "count": 84,
      "normalized": false
    },
    {
      "bufferView": 5,
      "byteOffset": 0,
      "type": "SCALAR",
      "componentType": 5125,
      "count": 30,
      "normalized": false
    },
    {
      "bufferView": 6,
      "byteOffset": 0,
      "type": "SCALAR",
      "componentType": 5125,
      "count": 36,
      "normalized": false
    }
  ],
  "materials": [
    {
      "name": "metalRed",
      "pbrMetallicRoughness": {
        "baseColorFactor": [
          1,
          0.628524244,
          0.2028302,
          1
        ],
        "metallicFactor": 1,
        "roughnessFactor": 1
      },
      "doubleSided": false,
      "alphaMode": "OPAQUE"
    },
    {
      "name": "metal",
      "pbrMetallicRoughness": {
        "baseColorFactor": [
          0.843137264,
          0.870588243,
          0.9098039,
          1
        ],
        "metallicFactor": 1,
        "roughnessFactor": 1
      },
      "doubleSided": false,
      "alphaMode": "OPAQUE"
    },
    {
      "name": "metalDark",
      "pbrMetallicRoughness": {
        "baseColorFactor": [
          0.6750623,
          0.7100219,
          0.7735849,
          1
        ],
        "metallicFactor": 1,
        "roughnessFactor": 1
      },
      "doubleSided": false,
      "alphaMode": "OPAQUE"
    },
    {
      "name": "dark",
      "pbrMetallicRoughness": {
        "baseColorFactor": [
          0.274509817,
          0.298039228,
          0.34117648,
          1
        ],
        "metallicFactor": 1,
        "roughnessFactor": 1
      },
      "doubleSided": false,
      "alphaMode": "OPAQUE"
    }
  ],
  "meshes": [
    {
      "name": "Mesh weapon_gun",
      "primitives": [
        {
          "mode": 4,
          "indices": 3,
          "attributes": {
            "POSITION": 0,
            "NORMAL": 1,
            "TEXCOORD_0": 2
          },
          "material": 0
        },
        {
          "mode": 4,
          "indices": 4,
          "attributes": {
            "POSITION": 0,
            "NORMAL": 1,
            "TEXCOORD_0": 2
          },
          "material": 1
        },
        {
          "mode": 4,
          "indices": 5,
          "attributes": {
            "POSITION": 0,
            "NORMAL": 1,
            "TEXCOORD_0": 2
          },
          "material": 2
        },
        {
          "mode": 4,
          "indices": 6,
          "attributes": {
            "POSITION": 0,
            "NORMAL": 1,
            "TEXCOORD_0": 2
          },
          "material": 3
        }
      ]
    }
  ],
  "nodes": [
    {
      "name": "weapon_gun",
      "translation": [
        0,
        0,
        0
      ],
      "rotation": [
        0,
        0,
        0,
        1
      ],
      "scale": [
        1,
        1,
        1
      ],
      "mesh": 0
    }
  ],
  "scenes": [
    {
      "nodes": [
        0
      ]
    }
  ],
  "scene": 0
}